<svg xmlns="http://www.w3.org/2000/svg" width="32" height="32" viewBox="0 0 32 32" fill="none">
  <rect width="32" height="32" rx="8" fill="#2563EB"/>
  <path d="M10 10.5C10 9.67157 10.6716 9 11.5 9H14.5C15.3284 9 16 9.67157 16 10.5V13.5C16 14.3284 15.3284 15 14.5 15H11.5C10.6716 15 10 14.3284 10 13.5V10.5Z" fill="white"/>
  <path d="M17 10.5C17 9.67157 17.6716 9 18.5 9H20.5C21.3284 9 22 9.67157 22 10.5V13.5C22 14.3284 21.3284 15 20.5 15H18.5C17.6716 15 17 14.3284 17 13.5V10.5Z" fill="white" fill-opacity="0.7"/>
  <path d="M10 17.5C10 16.6716 10.6716 16 11.5 16H14.5C15.3284 16 16 16.6716 16 17.5V21.5C16 22.3284 15.3284 23 14.5 23H11.5C10.6716 23 10 22.3284 10 21.5V17.5Z" fill="white" fill-opacity="0.7"/>
  <path d="M17 17.5C17 16.6716 17.6716 16 18.5 16H20.5C21.3284 16 22 16.6716 22 17.5V21.5C22 22.3284 21.3284 23 20.5 23H18.5C17.6716 23 17 22.3284 17 21.5V17.5Z" fill="white" fill-opacity="0.5"/>
</svg>
